<svg xmlns="http://www.w3.org/2000/svg" xmlns:xlink="http://www.w3.org/1999/xlink" contentStyleType="text/css" data-diagram-type="CLASS" height="833px" preserveAspectRatio="none" style="width:1079px;height:833px;background:#FFFFFF;" version="1.1" viewBox="0 0 1079 833" width="1079px" zoomAndPan="magnify"><defs/><g><!--cluster model--><g class="cluster" data-entity="model" data-source-line="1" data-uid="ent0002" id="cluster_model"><path d="M8.5,6 L58.0215,6 A3.75,3.75 0 0 1 60.5215,8.5 L67.5215,28.2969 L489.5,28.2969 A2.5,2.5 0 0 1 492,30.7969 L492,536.43 A2.5,2.5 0 0 1 489.5,538.93 L8.5,538.93 A2.5,2.5 0 0 1 6,536.43 L6,8.5 A2.5,2.5 0 0 1 8.5,6" fill="none" style="stroke:#000000;stroke-width:1.5;"/><line style="stroke:#000000;stroke-width:1.5;" x1="6" x2="67.5215" y1="28.2969" y2="28.2969"/><text fill="#000000" font-family="sans-serif" font-size="14" font-weight="bold" lengthAdjust="spacing" textLength="48.5215" x="10" y="20.9951">model</text></g><!--cluster service--><g class="cluster" data-entity="service" data-source-line="35" data-uid="ent0007" id="cluster_service"><path d="M518.5,342.15 L575.9512,342.15 A3.75,3.75 0 0 1 578.4512,344.65 L585.4512,364.4469 L1069.5,364.4469 A2.5,2.5 0 0 1 1072,366.9469 L1072,823.7 A2.5,2.5 0 0 1 1069.5,826.2 L518.5,826.2 A2.5,2.5 0 0 1 516,823.7 L516,344.65 A2.5,2.5 0 0 1 518.5,342.15" fill="none" style="stroke:#000000;stroke-width:1.5;"/><line style="stroke:#000000;stroke-width:1.5;" x1="516" x2="585.4512" y1="364.4469" y2="364.4469"/><text fill="#000000" font-family="sans-serif" font-size="14" font-weight="bold" lengthAdjust="spacing" textLength="56.4512" x="520" y="357.1451">service</text></g><!--cluster ihm--><g class="cluster" data-entity="ihm" data-source-line="62" data-uid="ent0011" id="cluster_ihm"><path d="M675.5,30.44 L705.8535,30.44 A3.75,3.75 0 0 1 708.3535,32.94 L715.3535,52.7369 L912.5,52.7369 A2.5,2.5 0 0 1 915,55.2369 L915,306.21 A2.5,2.5 0 0 1 912.5,308.71 L675.5,308.71 A2.5,2.5 0 0 1 673,306.21 L673,32.94 A2.5,2.5 0 0 1 675.5,30.44" fill="none" style="stroke:#000000;stroke-width:1.5;"/><line style="stroke:#000000;stroke-width:1.5;" x1="673" x2="715.3535" y1="52.7369" y2="52.7369"/><text fill="#000000" font-family="sans-serif" font-size="14" font-weight="bold" lengthAdjust="spacing" textLength="29.3535" x="677" y="45.4351">ihm</text></g><!--class Todo--><g class="entity" data-entity="Todo" data-source-line="2" data-uid="ent0003" id="entity_Todo"><rect fill="#F1F1F1" height="276.1563" rx="2.5" ry="2.5" style="stroke:#181818;stroke-width:0.5;" width="290.4004" x="68.8" y="41"/><ellipse cx="192.4655" cy="57" fill="#ADD1B2" rx="11" ry="11" style="stroke:#181818;stroke-width:1;"/><path d="M195.4343,62.6406 Q194.8562,62.9375 194.2155,63.0781 Q193.5749,63.2344 192.8718,63.2344 Q190.3718,63.2344 189.0437,61.5938 Q187.7312,59.9375 187.7312,56.8125 Q187.7312,53.6875 189.0437,52.0313 Q190.3718,50.375 192.8718,50.375 Q193.5749,50.375 194.2155,50.5313 Q194.8718,50.6875 195.4343,50.9844 L195.4343,53.7031 Q194.8093,53.125 194.2155,52.8594 Q193.6218,52.5781 192.9968,52.5781 Q191.653,52.5781 190.9655,53.6563 Q190.278,54.7188 190.278,56.8125 Q190.278,58.9063 190.9655,59.9844 Q191.653,61.0469 192.9968,61.0469 Q193.6218,61.0469 194.2155,60.7813 Q194.8093,60.5 195.4343,59.9219 L195.4343,62.6406 Z " fill="#000000"/><text fill="#000000" font-family="sans-serif" font-size="14" lengthAdjust="spacing" textLength="34.5693" x="212.9655" y="61.8467">Todo</text><line style="stroke:#181818;stroke-width:0.5;" x1="69.8" x2="358.2004" y1="73" y2="73"/><rect fill="none" height="6" style="stroke:#C82930;stroke-width:1;" width="6" x="76.8" y="83.6484"/><text fill="#000000" font-family="sans-serif" font-size="14" lengthAdjust="spacing" textLength="102.1221" x="88.8" y="89.9951">static int nbrId</text><rect fill="none" height="6" style="stroke:#C82930;stroke-width:1;" width="6" x="76.8" y="99.9453"/><text fill="#000000" font-family="sans-serif" font-size="14" lengthAdjust="spacing" textLength="35.4785" x="88.8" y="106.292">int id</text><rect fill="none" height="6" style="stroke:#C82930;stroke-width:1;" width="6" x="76.8" y="116.2422"/><text fill="#000000" font-family="sans-serif" font-size="14" lengthAdjust="spacing" textLength="85.9346" x="88.8" y="122.5889">String name</text><rect fill="none" height="6" style="stroke:#C82930;stroke-width:1;" width="6" x="76.8" y="132.5391"/><text fill="#000000" font-family="sans-serif" font-size="14" lengthAdjust="spacing" textLength="124.0723" x="88.8" y="138.8857">String description</text><rect fill="none" height="6" style="stroke:#C82930;stroke-width:1;" width="6" x="76.8" y="148.8359"/><text fill="#000000" font-family="sans-serif" font-size="14" lengthAdjust="spacing" textLength="95.3613" x="88.8" y="155.1826">boolean done</text><line style="stroke:#181818;stroke-width:0.5;" x1="69.8" x2="358.2004" y1="162.4844" y2="162.4844"/><ellipse cx="79.8" cy="176.1328" fill="#84BE84" rx="3" ry="3" style="stroke:#038048;stroke-width:1;"/><text fill="#000000" font-family="sans-serif" font-size="14" lengthAdjust="spacing" textLength="264.4004" x="88.8" y="179.4795">Todo(String name, String description)</text><ellipse cx="79.8" cy="192.4297" fill="#84BE84" rx="3" ry="3" style="stroke:#038048;stroke-width:1;"/><text fill="#000000" font-family="sans-serif" font-size="14" lengthAdjust="spacing" textLength="78.7979" x="88.8" y="195.7764">getId() : int</text><ellipse cx="79.8" cy="208.7266" fill="#84BE84" rx="3" ry="3" style="stroke:#038048;stroke-width:1;"/><text fill="#000000" font-family="sans-serif" font-size="14" lengthAdjust="spacing" textLength="130.6143" x="88.8" y="212.0732">getName() : String</text><ellipse cx="79.8" cy="225.0234" fill="#84BE84" rx="3" ry="3" style="stroke:#038048;stroke-width:1;"/><text fill="#000000" font-family="sans-serif" font-size="14" lengthAdjust="spacing" textLength="202.8018" x="88.8" y="228.3701">setName(String name) : void</text><ellipse cx="79.8" cy="241.3203" fill="#84BE84" rx="3" ry="3" style="stroke:#038048;stroke-width:1;"/><text fill="#000000" font-family="sans-serif" font-size="14" lengthAdjust="spacing" textLength="169.0459" x="88.8" y="244.667">getDescription() : String</text><ellipse cx="79.8" cy="257.6172" fill="#84BE84" rx="3" ry="3" style="stroke:#038048;stroke-width:1;"/><text fill="#000000" font-family="sans-serif" font-size="14" lengthAdjust="spacing" textLength="234.0215" x="88.8" y="260.9639">setDescription(String desc) : void</text><ellipse cx="79.8" cy="273.9141" fill="#84BE84" rx="3" ry="3" style="stroke:#038048;stroke-width:1;"/><text fill="#000000" font-family="sans-serif" font-size="14" lengthAdjust="spacing" textLength="128.5293" x="88.8" y="277.2607">isDone() : boolean</text><ellipse cx="79.8" cy="290.2109" fill="#84BE84" rx="3" ry="3" style="stroke:#038048;stroke-width:1;"/><text fill="#000000" font-family="sans-serif" font-size="14" lengthAdjust="spacing" textLength="207.7578" x="88.8" y="293.5576">setDone(boolean done) : void</text><ellipse cx="79.8" cy="306.5078" fill="#84BE84" rx="3" ry="3" style="stroke:#038048;stroke-width:1;"/><text fill="#000000" font-family="sans-serif" font-size="14" lengthAdjust="spacing" textLength="122.1582" x="88.8" y="309.8545">toString() : String</text></g><!--class PriorityTodo--><g class="entity" data-entity="PriorityTodo" data-source-line="19" data-uid="ent0004" id="entity_PriorityTodo"><rect fill="#F1F1F1" height="113.1875" rx="2.5" ry="2.5" style="stroke:#181818;stroke-width:0.5;" width="454.415" x="21.79" y="409.75"/><ellipse cx="202.4262" cy="425.75" fill="#ADD1B2" rx="11" ry="11" style="stroke:#181818;stroke-width:1;"/><path d="M205.395,431.3906 Q204.8169,431.6875 204.1762,431.8281 Q203.5356,431.9844 202.8325,431.9844 Q200.3325,431.9844 199.0044,430.3438 Q197.6919,428.6875 197.6919,425.5625 Q197.6919,422.4375 199.0044,420.7813 Q200.3325,419.125 202.8325,419.125 Q203.5356,419.125 204.1762,419.2813 Q204.8325,419.4375 205.395,419.7344 L205.395,422.4531 Q204.77,421.875 204.1762,421.6094 Q203.5825,421.3281 202.9575,421.3281 Q201.6137,421.3281 200.9262,422.4063 Q200.2387,423.4688 200.2387,425.5625 Q200.2387,427.6563 200.9262,428.7344 Q201.6137,429.7969 202.9575,429.7969 Q203.5825,429.7969 204.1762,429.5313 Q204.77,429.25 205.395,428.6719 L205.395,431.3906 Z " fill="#000000"/><text fill="#000000" font-family="sans-serif" font-size="14" lengthAdjust="spacing" textLength="84.6426" x="222.9262" y="430.5967">PriorityTodo</text><line style="stroke:#181818;stroke-width:0.5;" x1="22.79" x2="475.205" y1="441.75" y2="441.75"/><rect fill="none" height="6" style="stroke:#C82930;stroke-width:1;" width="6" x="29.79" y="452.3984"/><text fill="#000000" font-family="sans-serif" font-size="14" lengthAdjust="spacing" textLength="105.041" x="41.79" y="458.7451">Priority priority</text><line style="stroke:#181818;stroke-width:0.5;" x1="22.79" x2="475.205" y1="466.0469" y2="466.0469"/><ellipse cx="32.79" cy="479.6953" fill="#84BE84" rx="3" ry="3" style="stroke:#038048;stroke-width:1;"/><text fill="#000000" font-family="sans-serif" font-size="14" lengthAdjust="spacing" textLength="428.415" x="41.79" y="483.042">PriorityTodo(String name, String description, Priority priority)</text><ellipse cx="32.79" cy="495.9922" fill="#84BE84" rx="3" ry="3" style="stroke:#038048;stroke-width:1;"/><text fill="#000000" font-family="sans-serif" font-size="14" lengthAdjust="spacing" textLength="147.6768" x="41.79" y="499.3389">getPriority() : Priority</text><ellipse cx="32.79" cy="512.2891" fill="#84BE84" rx="3" ry="3" style="stroke:#038048;stroke-width:1;"/><text fill="#000000" font-family="sans-serif" font-size="14" lengthAdjust="spacing" textLength="189.0479" x="41.79" y="515.6357">setPriority(Priority p) : void</text></g><!--class Priority--><g class="entity" data-entity="Priority" data-source-line="26" data-uid="ent0005" id="entity_Priority"><rect fill="#F1F1F1" height="96.8906" rx="2.5" ry="2.5" style="stroke:#181818;stroke-width:0.5;" width="82.2871" x="393.86" y="130.63"/><ellipse cx="408.9562" cy="146.63" fill="#EB937F" rx="11" ry="11" style="stroke:#181818;stroke-width:1;"/><path d="M413.0656,152.63 L405.3469,152.63 L405.3469,140.2394 L413.0656,140.2394 L413.0656,142.3956 L407.8,142.3956 L407.8,145.0675 L412.5656,145.0675 L412.5656,147.2238 L407.8,147.2238 L407.8,150.4738 L413.0656,150.4738 L413.0656,152.63 Z " fill="#000000"/><text fill="#000000" font-family="sans-serif" font-size="14" lengthAdjust="spacing" textLength="50.0732" x="422.9776" y="151.4767">Priority</text><line style="stroke:#181818;stroke-width:0.5;" x1="394.86" x2="475.1471" y1="162.63" y2="162.63"/><text fill="#000000" font-family="sans-serif" font-size="14" lengthAdjust="spacing" textLength="45.8008" x="399.86" y="179.6251">BASSE</text><text fill="#000000" font-family="sans-serif" font-size="14" lengthAdjust="spacing" textLength="70.2871" x="399.86" y="195.922">MOYENNE</text><text fill="#000000" font-family="sans-serif" font-size="14" lengthAdjust="spacing" textLength="47.749" x="399.86" y="212.2189">HAUTE</text><line style="stroke:#181818;stroke-width:0.5;" x1="394.86" x2="475.1471" y1="219.5206" y2="219.5206"/></g><!--class TodoService--><g class="entity" data-entity="TodoService" data-source-line="36" data-uid="ent0008" id="entity_TodoService"><rect fill="#F1F1F1" height="178.375" rx="2.5" ry="2.5" style="stroke:#181818;stroke-width:0.5;" width="524.0117" x="531.99" y="377.15"/><ellipse cx="746.5906" cy="393.15" fill="#B4A7E5" rx="11" ry="11" style="stroke:#181818;stroke-width:1;"/><path d="M742.5125,388.9156 L742.5125,386.7594 L749.9031,386.7594 L749.9031,388.9156 L747.4343,388.9156 L747.4343,396.9938 L749.9031,396.9938 L749.9031,399.15 L742.5125,399.15 L742.5125,396.9938 L744.9812,396.9938 L744.9812,388.9156 L742.5125,388.9156 Z " fill="#000000"/><text fill="#000000" font-family="sans-serif" font-size="14" font-style="italic" lengthAdjust="spacing" textLength="86.3105" x="767.0906" y="397.9967">TodoService</text><line style="stroke:#181818;stroke-width:0.5;" x1="532.99" x2="1055.0017" y1="409.15" y2="409.15"/><line style="stroke:#181818;stroke-width:0.5;" x1="532.99" x2="1055.0017" y1="417.15" y2="417.15"/><ellipse cx="542.99" cy="430.7984" fill="#84BE84" rx="3" ry="3" style="stroke:#038048;stroke-width:1;"/><text fill="#000000" font-family="sans-serif" font-size="14" lengthAdjust="spacing" textLength="147.3896" x="551.99" y="434.1451">getAll() : List&lt;Todo&gt;</text><ellipse cx="542.99" cy="447.0953" fill="#84BE84" rx="3" ry="3" style="stroke:#038048;stroke-width:1;"/><text fill="#000000" font-family="sans-serif" font-size="14" lengthAdjust="spacing" textLength="148.4834" x="551.99" y="450.442">getById(int id) : Todo</text><ellipse cx="542.99" cy="463.3922" fill="#84BE84" rx="3" ry="3" style="stroke:#038048;stroke-width:1;"/><text fill="#000000" font-family="sans-serif" font-size="14" lengthAdjust="spacing" textLength="299.4277" x="551.99" y="466.7389">add(String name, String description) : void</text><ellipse cx="542.99" cy="479.6891" fill="#84BE84" rx="3" ry="3" style="stroke:#038048;stroke-width:1;"/><text fill="#000000" font-family="sans-serif" font-size="14" lengthAdjust="spacing" textLength="498.0117" x="551.99" y="483.0357">addPriorityTodo(String name, String description, Priority priority) : void</text><ellipse cx="542.99" cy="495.9859" fill="#84BE84" rx="3" ry="3" style="stroke:#038048;stroke-width:1;"/><text fill="#000000" font-family="sans-serif" font-size="14" lengthAdjust="spacing" textLength="471.0439" x="551.99" y="499.3326">update(int id, String name, String description, boolean done) : void</text><ellipse cx="542.99" cy="512.2828" fill="#84BE84" rx="3" ry="3" style="stroke:#038048;stroke-width:1;"/><text fill="#000000" font-family="sans-serif" font-size="14" lengthAdjust="spacing" textLength="143.1172" x="551.99" y="515.6295">remove(int id) : void</text><ellipse cx="542.99" cy="528.5797" fill="#84BE84" rx="3" ry="3" style="stroke:#038048;stroke-width:1;"/><text fill="#000000" font-family="sans-serif" font-size="14" lengthAdjust="spacing" textLength="170.8096" x="551.99" y="531.9264">toggleDone(int id) : void</text><ellipse cx="542.99" cy="544.8766" fill="#84BE84" rx="3" ry="3" style="stroke:#038048;stroke-width:1;"/><text fill="#000000" font-family="sans-serif" font-size="14" lengthAdjust="spacing" textLength="193.9492" x="551.99" y="548.2232">justNotDone() : List&lt;Todo&gt;</text></g><!--class TodoServiceImpl--><g class="entity" data-entity="TodoServiceImpl" data-source-line="47" data-uid="ent0009" id="entity_TodoServiceImpl"><rect fill="#F1F1F1" height="194.6719" rx="2.5" ry="2.5" style="stroke:#181818;stroke-width:0.5;" width="524.0117" x="531.99" y="615.53"/><ellipse cx="731.3191" cy="631.53" fill="#ADD1B2" rx="11" ry="11" style="stroke:#181818;stroke-width:1;"/><path d="M734.2879,637.1706 Q733.7097,637.4675 733.0691,637.6081 Q732.4285,637.7644 731.7254,637.7644 Q729.2254,637.7644 727.8972,636.1238 Q726.5847,634.4675 726.5847,631.3425 Q726.5847,628.2175 727.8972,626.5613 Q729.2254,624.905 731.7254,624.905 Q732.4285,624.905 733.0691,625.0613 Q733.7254,625.2175 734.2879,625.5144 L734.2879,628.2331 Q733.6629,627.655 733.0691,627.3894 Q732.4754,627.1081 731.8504,627.1081 Q730.5066,627.1081 729.8191,628.1863 Q729.1316,629.2488 729.1316,631.3425 Q729.1316,633.4363 729.8191,634.5144 Q730.5066,635.5769 731.8504,635.5769 Q732.4754,635.5769 733.0691,635.3113 Q733.6629,635.03 734.2879,634.4519 L734.2879,637.1706 Z " fill="#000000"/><text fill="#000000" font-family="sans-serif" font-size="14" lengthAdjust="spacing" textLength="116.8535" x="751.8191" y="636.3767">TodoServiceImpl</text><line style="stroke:#181818;stroke-width:0.5;" x1="532.99" x2="1055.0017" y1="647.53" y2="647.53"/><rect fill="none" height="6" style="stroke:#C82930;stroke-width:1;" width="6" x="539.99" y="658.1784"/><text fill="#000000" font-family="sans-serif" font-size="14" lengthAdjust="spacing" textLength="250.1543" x="551.99" y="664.5251">static Map&lt;Integer, Todo&gt; todoList</text><line style="stroke:#181818;stroke-width:0.5;" x1="532.99" x2="1055.0017" y1="671.8269" y2="671.8269"/><ellipse cx="542.99" cy="685.4753" fill="#84BE84" rx="3" ry="3" style="stroke:#038048;stroke-width:1;"/><text fill="#000000" font-family="sans-serif" font-size="14" lengthAdjust="spacing" textLength="147.3896" x="551.99" y="688.822">getAll() : List&lt;Todo&gt;</text><ellipse cx="542.99" cy="701.7722" fill="#84BE84" rx="3" ry="3" style="stroke:#038048;stroke-width:1;"/><text fill="#000000" font-family="sans-serif" font-size="14" lengthAdjust="spacing" textLength="148.4834" x="551.99" y="705.1189">getById(int id) : Todo</text><ellipse cx="542.99" cy="718.0691" fill="#84BE84" rx="3" ry="3" style="stroke:#038048;stroke-width:1;"/><text fill="#000000" font-family="sans-serif" font-size="14" lengthAdjust="spacing" textLength="299.4277" x="551.99" y="721.4157">add(String name, String description) : void</text><ellipse cx="542.99" cy="734.3659" fill="#84BE84" rx="3" ry="3" style="stroke:#038048;stroke-width:1;"/><text fill="#000000" font-family="sans-serif" font-size="14" lengthAdjust="spacing" textLength="498.0117" x="551.99" y="737.7126">addPriorityTodo(String name, String description, Priority priority) : void</text><ellipse cx="542.99" cy="750.6628" fill="#84BE84" rx="3" ry="3" style="stroke:#038048;stroke-width:1;"/><text fill="#000000" font-family="sans-serif" font-size="14" lengthAdjust="spacing" textLength="471.0439" x="551.99" y="754.0095">update(int id, String name, String description, boolean done) : void</text><ellipse cx="542.99" cy="766.9597" fill="#84BE84" rx="3" ry="3" style="stroke:#038048;stroke-width:1;"/><text fill="#000000" font-family="sans-serif" font-size="14" lengthAdjust="spacing" textLength="143.1172" x="551.99" y="770.3064">remove(int id) : void</text><ellipse cx="542.99" cy="783.2566" fill="#84BE84" rx="3" ry="3" style="stroke:#038048;stroke-width:1;"/><text fill="#000000" font-family="sans-serif" font-size="14" lengthAdjust="spacing" textLength="170.8096" x="551.99" y="786.6032">toggleDone(int id) : void</text><ellipse cx="542.99" cy="799.5534" fill="#84BE84" rx="3" ry="3" style="stroke:#038048;stroke-width:1;"/><text fill="#000000" font-family="sans-serif" font-size="14" lengthAdjust="spacing" textLength="193.9492" x="551.99" y="802.9001">justNotDone() : List&lt;Todo&gt;</text></g><!--class Ihm--><g class="entity" data-entity="Ihm" data-source-line="63" data-uid="ent0012" id="entity_Ihm"><rect fill="#F1F1F1" height="227.2656" rx="2.5" ry="2.5" style="stroke:#181818;stroke-width:0.5;" width="209.5586" x="689.22" y="65.44"/><ellipse cx="776.4295" cy="81.44" fill="#ADD1B2" rx="11" ry="11" style="stroke:#181818;stroke-width:1;"/><path d="M779.3982,87.0806 Q778.8201,87.3775 778.1795,87.5181 Q777.5388,87.6744 776.8357,87.6744 Q774.3357,87.6744 773.0076,86.0338 Q771.6951,84.3775 771.6951,81.2525 Q771.6951,78.1275 773.0076,76.4713 Q774.3357,74.815 776.8357,74.815 Q777.5388,74.815 778.1795,74.9713 Q778.8357,75.1275 779.3982,75.4244 L779.3982,78.1431 Q778.7732,77.565 778.1795,77.2994 Q777.5857,77.0181 776.9607,77.0181 Q775.617,77.0181 774.9295,78.0963 Q774.242,79.1588 774.242,81.2525 Q774.242,83.3463 774.9295,84.4244 Q775.617,85.4869 776.9607,85.4869 Q777.5857,85.4869 778.1795,85.2213 Q778.7732,84.94 779.3982,84.3619 L779.3982,87.0806 Z " fill="#000000"/><text fill="#000000" font-family="sans-serif" font-size="14" lengthAdjust="spacing" textLength="26.6396" x="796.9295" y="86.2867">Ihm</text><line style="stroke:#181818;stroke-width:0.5;" x1="690.22" x2="897.7786" y1="97.44" y2="97.44"/><rect fill="none" height="6" style="stroke:#C82930;stroke-width:1;" width="6" x="697.22" y="108.0884"/><text fill="#000000" font-family="sans-serif" font-size="14" lengthAdjust="spacing" textLength="140.9092" x="709.22" y="114.4351">TodoService service</text><rect fill="none" height="6" style="stroke:#C82930;stroke-width:1;" width="6" x="697.22" y="124.3853"/><text fill="#000000" font-family="sans-serif" font-size="14" lengthAdjust="spacing" textLength="117.4141" x="709.22" y="130.732">Scanner scanner</text><line style="stroke:#181818;stroke-width:0.5;" x1="690.22" x2="897.7786" y1="138.0338" y2="138.0338"/><ellipse cx="700.22" cy="151.6822" fill="#84BE84" rx="3" ry="3" style="stroke:#038048;stroke-width:1;"/><text fill="#000000" font-family="sans-serif" font-size="14" lengthAdjust="spacing" textLength="178.4727" x="709.22" y="155.0289">Ihm(TodoService service)</text><ellipse cx="700.22" cy="167.9791" fill="#84BE84" rx="3" ry="3" style="stroke:#038048;stroke-width:1;"/><text fill="#000000" font-family="sans-serif" font-size="14" lengthAdjust="spacing" textLength="86.7754" x="709.22" y="171.3257">start() : void</text><rect fill="#F24D5C" height="6" style="stroke:#C82930;stroke-width:1;" width="6" x="697.22" y="181.2759"/><text fill="#000000" font-family="sans-serif" font-size="14" lengthAdjust="spacing" textLength="133.4854" x="709.22" y="187.6226">createTodo() : void</text><rect fill="#F24D5C" height="6" style="stroke:#C82930;stroke-width:1;" width="6" x="697.22" y="197.5728"/><text fill="#000000" font-family="sans-serif" font-size="14" lengthAdjust="spacing" textLength="107.707" x="709.22" y="203.9195">showAll() : void</text><rect fill="#F24D5C" height="6" style="stroke:#C82930;stroke-width:1;" width="6" x="697.22" y="213.8697"/><text fill="#000000" font-family="sans-serif" font-size="14" lengthAdjust="spacing" textLength="138.0654" x="709.22" y="220.2164">updateTodo() : void</text><rect fill="#F24D5C" height="6" style="stroke:#C82930;stroke-width:1;" width="6" x="697.22" y="230.1666"/><text fill="#000000" font-family="sans-serif" font-size="14" lengthAdjust="spacing" textLength="132.8428" x="709.22" y="236.5132">deleteTodo() : void</text><rect fill="#F24D5C" height="6" style="stroke:#C82930;stroke-width:1;" width="6" x="697.22" y="246.4634"/><text fill="#000000" font-family="sans-serif" font-size="14" lengthAdjust="spacing" textLength="133.0684" x="709.22" y="252.8101">toggleTodo() : void</text><rect fill="#F24D5C" height="6" style="stroke:#C82930;stroke-width:1;" width="6" x="697.22" y="262.7603"/><text fill="#000000" font-family="sans-serif" font-size="14" lengthAdjust="spacing" textLength="141.0732" x="709.22" y="269.107">justNotDone() : void</text><rect fill="#F24D5C" height="6" style="stroke:#C82930;stroke-width:1;" width="6" x="697.22" y="279.0572"/><text fill="#000000" font-family="sans-serif" font-size="14" lengthAdjust="spacing" textLength="183.5586" x="709.22" y="285.4039">createPriorityTodo() : void</text></g><!--reverse link Todo to PriorityTodo--><g class="link" data-entity-1="Todo" data-entity-2="PriorityTodo" data-source-line="32" data-uid="lnk6" id="link_Todo_PriorityTodo"><path codeLine="32" d="M233.0261,335.1455 C237.0261,367.6855 238.87,382.74 242.12,409.25" fill="none" id="Todo-backto-PriorityTodo" style="stroke:#181818;stroke-width:1;"/><polygon fill="none" points="230.83,317.28,227.071,335.8776,238.9813,334.4135,230.83,317.28" style="stroke:#181818;stroke-width:1;"/></g><!--reverse link TodoService to TodoServiceImpl--><g class="link" data-entity-1="TodoService" data-entity-2="TodoServiceImpl" data-source-line="59" data-uid="lnk10" id="link_TodoService_TodoServiceImpl"><path codeLine="59" d="M794,573.96 C794,593.24 794,595.72 794,615.28" fill="none" id="TodoService-backto-TodoServiceImpl" style="stroke:#181818;stroke-width:1;stroke-dasharray:7.0,7.0;"/><polygon fill="none" points="794,555.96,788,573.96,800,573.96,794,555.96" style="stroke:#181818;stroke-width:1;"/></g><!--link Ihm to TodoService--><g class="link" data-entity-1="Ihm" data-entity-2="TodoService" data-source-line="77" data-uid="lnk13" id="link_Ihm_TodoService"><path codeLine="77" d="M794,292.82 C794,320.7 794,344.17 794,370.71" fill="none" id="Ihm-to-TodoService" style="stroke:#181818;stroke-width:1;"/><polygon fill="#181818" points="794,376.71,798,367.71,794,371.71,790,367.71,794,376.71" style="stroke:#181818;stroke-width:1;"/></g><!--SRC=[xLNBJiCm4BptAtmiek43K5IfY4f4egLIoe6ZYPVKaDYHxHOXuD-n7RVPlDG35mxaqjgpE_kOjLtHx8tcG4h9e22V4sA_hA1QawraCcouBoBQKCCpmeKXubab345kZ-EDr2WkSY9e2VrT1ZfJl39S2WG-Ira05OH9qVXS-ZIcY6usm7A1x7Cm2PjUa6kNL7j_RTqzKZCWK0SGnN5s1ucAyXItJT1H9co3SXqWvFhM5kk9GlKT9eVYlWnm65d7wARpFK5QRXINYfkFdgP7W5JX3sB6JkSKcFMPEg8SSP_dfXzD8vE6grLmA0d4lcp2DTNSBD9qULgj7fwMwtMplbiyRfUOnlSY_egYLg4JYrRXJ6XG1vv126772TGBjMjdbxQmKvMBel05tdDjOcStR-Ct7tOuwzFYp7p4ne0oTdRK-nDWlNuhLPzqNp5g8AGw8sSvpqofWb8U05NUc-8yBy3F-wZDwrwRjJId8zFfSMlWaKH9MHL3zzYALd5YDSr1pRpzt6R1f6Fzr_HlQOeFNFnrTTML5nzQlYjRprXoMjVgOwvmmF4BbL4XG15T_w9CBSzqm1VVSdQmb9dsgen8fi0stWivWEgTV3_EM0Ug5Hjpj2ysZADr-yVGRkC7CswDuD1Lx9eRHNFSrCdt3m00]--></g></svg>